<svg width="801" height="255" viewBox="0 0 801 255" fill="none" xmlns="http://www.w3.org/2000/svg">
<path fill-rule="evenodd" clip-rule="evenodd" d="M643.567 95.6196C638.463 95.6452 633.95 91.9673 633.085 86.7702C632.125 81.0038 636.023 75.551 641.789 74.5914C645.949 73.8995 650.047 73.0879 654.385 72.2281C656.111 71.8864 657.837 71.5446 659.564 71.2106C661.411 70.8344 663.238 70.4354 665.171 70.0135C666.254 69.7766 667.337 69.5405 668.42 69.3086L669.986 68.9697C672.455 68.4364 674.788 67.9325 677.103 67.3637L677.187 67.3437L686.158 65.2186C688.002 64.7901 689.805 64.3227 691.713 63.8278C692.778 63.5518 693.844 63.2754 694.912 63.0068C695.976 62.7292 697.043 62.4581 698.11 62.187C700.027 61.6994 701.837 61.2389 703.637 60.7404L716.899 57.0799L730.09 53.1919C731.913 52.6611 733.696 52.0978 735.585 51.5018C736.65 51.165 737.714 50.829 738.782 50.5L747.447 47.7797C749.504 47.093 751.564 46.4128 753.624 45.7331C757.299 44.5199 761.1 43.2652 764.795 41.9985L775.392 38.2986C777.664 37.5072 779.811 36.7601 781.946 35.9612C787.422 33.9124 793.521 36.6904 795.57 42.1661C797.619 47.6417 794.841 53.7408 789.365 55.7887C787.002 56.6729 784.639 57.4958 782.354 58.2918L771.718 62.0041C767.852 63.3305 763.992 64.6046 760.258 65.8368C758.192 66.5187 756.126 67.2009 754.061 67.8901L753.878 67.9493L745.07 70.7145C743.997 71.0452 742.978 71.3674 741.959 71.6889C740.042 72.2945 738.061 72.9204 736.042 73.5077L722.624 77.4613L709.28 81.1447C707.274 81.7005 705.267 82.211 703.325 82.7045C702.287 82.9685 701.25 83.232 700.214 83.503L700.116 83.5275C699.085 83.7862 698.056 84.0534 697.026 84.3206C695.074 84.8268 693.056 85.35 690.993 85.8293L682.108 87.9344C679.519 88.5687 676.945 89.1249 674.456 89.6627L672.882 90.0033C671.794 90.2361 670.741 90.4658 669.688 90.696C667.751 91.1188 665.748 91.5563 663.736 91.9664L663.63 91.9877C661.918 92.3171 660.209 92.6559 658.5 92.9951C654.195 93.8474 649.744 94.7298 645.264 95.4747C644.694 95.5694 644.127 95.6168 643.567 95.6196Z" fill="#59CBE8"/>
<path fill-rule="evenodd" clip-rule="evenodd" d="M548.262 111.645C542.591 111.673 536.953 111.61 531.355 111.456C520.181 111.065 511.696 110.572 503.794 109.856C495.544 109.183 486.585 108.164 476.406 106.74C472.271 106.161 469.387 102.34 469.966 98.2049C470.544 94.0688 474.363 91.1818 478.501 91.7643C488.403 93.1493 497.09 94.138 505.058 94.787L505.127 94.7932C512.75 95.4848 520.984 95.9626 531.828 96.3425C549.311 96.8233 567.306 96.3807 585.254 95.0261C602.312 93.7535 619.685 91.6087 638.371 88.4678C655.374 85.602 673.022 81.9288 690.819 77.5511C694.877 76.5535 698.97 79.0327 699.967 83.0878C700.964 87.1426 698.486 91.238 694.431 92.2355C676.272 96.7016 658.255 100.451 640.881 103.38C621.729 106.599 603.905 108.798 586.386 110.105C573.651 111.067 560.884 111.581 548.262 111.645Z" fill="#9063CD"/>
<path fill-rule="evenodd" clip-rule="evenodd" d="M-152.929 224.116C-154.595 224.124 -156.287 223.738 -157.867 222.915C-163.051 220.212 -165.062 213.819 -162.359 208.635C-153.738 192.102 -143.405 175.444 -131.647 159.122C-120.141 143.186 -107.581 128.133 -94.3117 114.37C-80.5599 100.101 -65.8844 87.0629 -50.694 75.6185C-34.8663 63.6962 -18.2017 53.2685 -1.16324 44.6251C4.05144 41.9796 10.4209 44.0624 13.0655 49.2758C15.7106 54.4893 13.6282 60.86 8.41435 63.5046C-7.51832 71.5873 -23.1197 81.3517 -37.956 92.5278C-52.2567 103.301 -66.0894 115.594 -79.07 129.063C-91.6491 142.109 -103.561 156.388 -114.476 171.506C-125.637 186.998 -135.434 202.787 -143.587 218.423C-145.466 222.027 -149.129 224.097 -152.929 224.116Z" fill="#FDDA24"/>
<path fill-rule="evenodd" clip-rule="evenodd" d="M-116.766 148.17C-118.445 148.178 -120.137 147.63 -121.546 146.494C-124.796 143.873 -125.306 139.113 -122.685 135.862C-118.604 130.801 -114.403 125.951 -111.2 122.291L-111.143 122.226C-106.746 117.316 -103.007 113.215 -99.0488 109.16C-90.9114 100.705 -82.1835 92.4596 -73.1426 84.6879C-54.8362 68.9023 -35.1054 55.1293 -14.5071 43.7598C6.62574 32.0831 28.9247 22.85 51.7675 16.3183C74.357 9.83899 98.1357 5.82683 122.437 4.39459C126.608 4.15201 130.184 7.32888 130.429 11.4976C130.675 15.6659 127.495 19.2444 123.327 19.4899C100.134 20.8565 77.459 24.6807 55.9308 30.8555C34.1779 37.0756 12.9409 45.8702 -7.19707 56.9966C-26.8841 67.8636 -45.7513 81.0355 -63.2765 96.1473C-71.9667 103.618 -80.3456 111.534 -88.1903 119.683C-91.9885 123.575 -95.5953 127.532 -99.8499 132.282C-102.956 135.832 -107.014 140.518 -110.913 145.354C-112.399 147.196 -114.571 148.159 -116.766 148.17Z" fill="#9063CD"/>
<path fill-rule="evenodd" clip-rule="evenodd" d="M551.051 104.614L551.016 104.614L548.549 104.62C544.48 104.632 540.275 104.645 536.055 104.523C532.037 104.48 528.044 104.308 524.181 104.143C523.158 104.099 522.136 104.055 521.112 104.013L520.947 104.005C509.452 103.358 499.925 102.57 490.962 101.526C480.302 100.278 470.564 98.8651 461.186 97.2068C451.458 95.4719 441.558 93.4358 431.746 91.1527C413.911 86.9608 395.027 81.6534 373.991 74.9216C360.691 70.6759 347.245 66.1188 334.242 61.7116C328.649 59.8164 323.051 57.9191 317.441 56.0374C311.899 54.179 308.912 48.1787 310.771 42.6365C312.63 37.0935 318.629 34.1069 324.173 35.9661C329.804 37.8547 335.423 39.7592 341.037 41.6617C353.952 46.0391 367.308 50.5653 380.437 54.7566C400.943 61.3193 419.301 66.4808 436.567 70.5383C445.999 72.7335 455.535 74.6947 464.888 76.3625C473.841 77.9462 483.177 79.2998 493.418 80.4982C501.924 81.4899 511.028 82.2418 522.054 82.8636C523.065 82.905 524.077 82.9481 525.089 82.9916C528.986 83.159 532.667 83.3169 536.374 83.3554L536.574 83.3593C540.486 83.4739 544.371 83.4626 548.484 83.4497L550.98 83.4433C556.826 83.4335 561.573 88.1642 561.583 94.0105C561.593 99.8441 556.881 104.584 551.051 104.614Z" fill="#FF7F41"/>
<path fill-rule="evenodd" clip-rule="evenodd" d="M60.7804 41.1803C56.7787 41.2004 53.1016 38.5506 51.9915 34.5074C50.6648 29.6755 53.5063 24.6827 58.3382 23.356C105.662 10.362 159.067 8.84492 217.066 18.8464C222.004 19.698 225.317 24.3909 224.465 29.3288C223.613 34.2668 218.919 37.5774 213.982 36.7283C158.628 27.1825 107.878 28.5712 63.1425 40.8541C62.3542 41.0707 61.5608 41.1764 60.7804 41.1803Z" fill="#F5B6CD"/>
<path fill-rule="evenodd" clip-rule="evenodd" d="M404.084 94.0125C403.119 94.0173 402.137 93.8896 401.161 93.6153C378.803 87.3293 356.731 79.9508 334.203 72.311L331.715 71.4671C311.121 64.4853 289.827 57.265 268.804 51.212C263.186 49.5948 259.943 43.7296 261.56 38.1119C263.178 32.4934 269.045 29.2516 274.661 30.8683C296.158 37.0574 317.69 44.3582 338.512 51.4184L341.001 52.2618C363.25 59.8076 385.031 67.0895 406.891 73.2351C412.519 74.8172 415.799 80.6621 414.216 86.2899C412.908 90.9415 408.687 93.9893 404.084 94.0125Z" fill="#00C389"/>
<path fill-rule="evenodd" clip-rule="evenodd" d="M519.691 166.619C519.278 166.621 518.863 166.609 518.445 166.583C495.24 165.126 471.212 161.891 447.027 156.968C425.388 152.577 402.67 146.646 377.587 138.837C368.018 135.859 362.676 125.687 365.655 116.118C368.634 106.55 378.806 101.208 388.374 104.186C412.271 111.625 433.821 117.257 454.255 121.403C476.819 125.997 499.177 129.01 520.718 130.362C530.72 130.99 538.32 139.608 537.692 149.61C537.09 159.194 529.153 166.572 519.691 166.619Z" fill="#F5B6CD"/>
<path fill-rule="evenodd" clip-rule="evenodd" d="M555.289 190.78C544.198 190.836 532.776 190.556 521.332 189.948L521.227 189.943C510.024 189.292 498.488 188.263 486.94 186.882L486.772 186.862L478.154 185.758L470.026 184.562C467.993 184.273 466.077 183.949 464.223 183.636C463.32 183.483 462.417 183.33 461.513 183.185L461.326 183.154C460.882 183.078 460.437 183.005 459.992 182.932C458.989 182.767 457.986 182.601 456.987 182.418L452.881 181.659C441.383 179.533 433.786 168.489 435.912 156.992C438.038 145.495 449.079 137.897 460.578 140.024L464.646 140.776C465.358 140.906 466.113 141.029 466.868 141.153C467.357 141.234 467.845 141.315 468.333 141.397C469.317 141.556 470.3 141.722 471.283 141.888C472.95 142.17 474.524 142.437 476.01 142.646L484.12 143.84L492.044 144.851C502.698 146.123 513.323 147.071 523.629 147.67C534.355 148.239 545.03 148.494 555.41 148.439C557.119 148.421 558.827 148.385 560.536 148.349C561.503 148.329 562.469 148.309 563.435 148.291L567.325 148.208L571.217 148.046C572.206 148.001 573.195 147.962 574.183 147.922C575.908 147.853 577.539 147.787 579.125 147.697L587.514 147.165C589.2 147.074 590.999 146.918 592.904 146.753C593.627 146.69 594.35 146.628 595.073 146.568C596.07 146.477 597.068 146.394 598.065 146.312C599.74 146.174 601.322 146.042 602.795 145.878C604.069 145.74 605.29 145.61 606.511 145.48C610.739 145.031 614.732 144.606 618.658 144.063L618.992 144.019C629.553 142.727 640.357 140.915 650.463 139.146C670.64 135.43 691.566 130.555 712.666 124.657C723.924 121.509 735.606 128.086 738.754 139.346C741.901 150.607 735.325 162.287 724.064 165.434C701.705 171.685 679.487 176.856 658.028 180.805L657.846 180.838C647.208 182.7 635.783 184.617 624.295 186.026C619.763 186.65 615.303 187.125 610.988 187.584C609.801 187.709 608.615 187.835 607.429 187.965C605.411 188.189 603.451 188.352 601.554 188.508C600.644 188.584 599.734 188.658 598.824 188.742L598.643 188.757C597.95 188.814 597.256 188.875 596.562 188.935C594.434 189.12 592.234 189.31 589.897 189.438L581.611 189.965C579.64 190.078 577.728 190.154 575.878 190.228C574.946 190.266 574.014 190.303 573.083 190.345L573.009 190.348L568.449 190.533L564.233 190.624C563.297 190.641 562.36 190.661 561.424 190.68C559.546 190.72 557.666 190.759 555.786 190.777L555.698 190.778L555.289 190.78Z" fill="#00C389"/>
<path fill-rule="evenodd" clip-rule="evenodd" d="M270.415 126.249C268.279 126.259 266.107 125.945 263.96 125.271C229.875 114.566 202.042 108.321 176.368 105.619L176.113 105.59C175.175 105.48 174.114 105.386 172.992 105.286C172.249 105.221 171.507 105.155 170.765 105.083C168.976 104.915 167.309 104.758 165.789 104.673L165.566 104.66L160.022 104.292L151.892 103.967L149.304 103.937C148.578 103.93 147.852 103.921 147.126 103.91C146.08 103.895 145.034 103.879 143.988 103.882C143.07 103.901 142.152 103.916 141.234 103.931C138.479 103.976 135.878 104.018 133.445 104.168L132.873 104.195C130.325 104.283 127.632 104.496 124.78 104.722C123.988 104.784 123.198 104.847 122.407 104.908C121.35 105.009 120.296 105.126 119.241 105.242C118.546 105.318 117.85 105.395 117.154 105.468C116.773 105.511 116.393 105.551 116.012 105.591C115.634 105.63 115.256 105.665 114.88 105.718L108.042 106.666L101.522 107.768C100.858 107.9 100.194 108.03 99.5293 108.161C96.6521 108.727 93.9343 109.26 91.3964 109.879C80.0397 112.649 68.5839 105.683 65.8154 94.3239C63.0468 82.9643 70.0108 71.5113 81.3708 68.7428C84.8349 67.8988 88.1546 67.2462 91.3654 66.615C92.0941 66.4717 92.8232 66.3285 93.5519 66.1836L94.1636 66.0707L101.896 64.7727L109.06 63.7791C110.032 63.644 110.914 63.5523 111.623 63.4785C111.892 63.4502 112.161 63.4227 112.429 63.392L112.634 63.3693C113.295 63.2999 113.957 63.2272 114.618 63.1545C115.943 63.009 117.268 62.8644 118.596 62.7382L118.999 62.7035C119.813 62.6423 120.626 62.5778 121.439 62.5133C124.541 62.2679 127.744 62.0147 131.129 61.8907C134.411 61.6967 137.526 61.6456 140.542 61.5965C141.455 61.5809 142.367 61.5666 143.279 61.5473L143.623 61.5427C144.991 61.5362 146.36 61.5543 147.73 61.5735C148.385 61.5833 149.041 61.5927 149.696 61.5975L153.239 61.6475L162.554 62.0265L168.263 62.4052C170.551 62.5353 172.677 62.7353 174.734 62.929L174.834 62.9379C175.464 62.9997 176.094 63.0553 176.725 63.1113C177.994 63.2237 179.427 63.3504 180.921 63.5237C209.433 66.535 239.856 73.3213 276.647 84.8758C287.802 88.3792 294.004 100.262 290.501 111.417C287.672 120.425 279.377 126.204 270.415 126.249Z" fill="#59CBE8"/>
<path fill-rule="evenodd" clip-rule="evenodd" d="M336.869 121.348C335.214 121.356 333.529 121.091 331.875 120.522C328.483 119.356 325.088 118.184 321.69 117.01C302.844 110.505 283.357 103.777 263.899 97.8876C238.279 90.1285 215.655 84.8097 194.729 81.6268C186.473 80.3711 180.797 72.6597 182.053 64.4037C183.309 56.1469 191.018 50.4704 199.277 51.7278C221.645 55.1299 245.649 60.7611 272.663 68.9425C292.676 74.9998 312.442 81.8237 331.559 88.4227C334.946 89.5923 338.329 90.7602 341.71 91.9229C349.607 94.6385 353.808 103.242 351.093 111.14C348.946 117.383 343.118 121.317 336.869 121.348Z" fill="#FDDA24"/>
<path fill-rule="evenodd" clip-rule="evenodd" d="M-60.0665 172.681C-65.4723 172.708 -70.8884 170.678 -75.041 166.581C-83.3637 158.37 -83.4543 144.966 -75.2427 136.642C-61.9888 123.208 -47.8718 110.972 -33.2845 100.274C-18.0096 89.068 -1.85359 79.2861 14.7318 71.203C23.5603 66.9099 32.3132 63.1479 40.7647 60.0139C49.5181 56.7564 58.5843 53.8667 67.6904 51.4332L70.9458 50.5825C72.216 50.2467 73.4736 49.9196 74.8705 49.6105L81.7775 48.0297L88.1216 46.7619C89.5826 46.4574 90.9524 46.2227 92.1099 46.032L99.1602 44.8586L102.567 44.386C103.186 44.3049 103.805 44.2169 104.423 44.1289C105.995 43.9063 107.772 43.6545 109.689 43.4694L116.71 42.7211L123.249 42.2111C134.904 41.3085 145.092 50.014 146.001 61.6707C146.911 73.3269 138.199 83.5139 126.542 84.4231L120.315 84.909L113.825 85.6069C112.83 85.7013 111.631 85.871 110.361 86.0509C109.631 86.1541 108.899 86.2574 108.168 86.3541L105.264 86.7577L99.0317 87.8033C98.2918 87.9246 97.4391 88.0689 96.7231 88.2198L96.5143 88.2625L90.3749 89.4893L84.0571 90.9427C83.4178 91.0826 82.6326 91.2878 81.7464 91.5229L78.5574 92.3556C70.7652 94.4397 63.0107 96.9122 55.5094 99.7039C48.3209 102.37 40.8437 105.586 33.2643 109.272C18.9686 116.239 4.9979 124.702 -8.242 134.415C-21.0232 143.788 -33.4235 154.542 -45.1021 166.379C-49.2172 170.55 -54.6367 172.653 -60.0665 172.681Z" fill="#FF7F41"/>
<path fill-rule="evenodd" clip-rule="evenodd" d="M-100.635 253.884C-103.118 253.897 -105.638 253.297 -107.969 252.019C-115.291 248.003 -117.972 238.811 -113.956 231.489C-108.568 221.664 -102.251 211.547 -95.1814 201.419C-88.34 191.638 -81.0507 182.214 -73.5082 173.398C-57.7439 154.95 -40.4746 138.537 -22.1874 124.619C-15.5416 119.562 -6.05393 120.849 -0.996308 127.495C4.06132 134.141 2.77379 143.628 -3.87209 148.686C-20.451 161.303 -36.1465 176.23 -50.5225 193.053C-57.4353 201.132 -64.1175 209.773 -70.3907 218.742C-76.8323 227.97 -82.5709 237.156 -87.4388 246.031C-90.1763 251.023 -95.319 253.857 -100.635 253.884Z" fill="#9063CD"/>
<path fill-rule="evenodd" clip-rule="evenodd" d="M577.117 163.994C569.08 164.034 562.357 157.738 561.951 149.628C561.533 141.287 567.956 134.187 576.297 133.769C608.952 132.133 643.454 127.113 678.844 118.845C695.188 115.026 712.193 110.404 729.384 105.106C745.11 100.25 761.398 94.6537 779.172 87.9986C786.992 85.071 795.707 89.036 798.636 96.8579C801.564 104.679 797.598 113.393 789.777 116.321C771.442 123.186 754.603 128.971 738.298 134.005C720.434 139.51 702.748 144.318 685.725 148.296C648.575 156.974 612.268 162.248 577.809 163.975C577.578 163.986 577.347 163.992 577.117 163.994Z" fill="#FDDA24"/>
</svg>
